<svg width="20" height="19" viewBox="0 0 20 19" fill="none" xmlns="http://www.w3.org/2000/svg">
<g clip-path="url(#clip0_259_11378)">
<path d="M18.7739 11.0558C18.7739 10.7426 18.5204 10.4886 18.2078 10.4886H17.075V2.75501C17.075 1.23589 15.8416 0 14.3257 0C12.8097 0 11.5764 1.23589 11.5764 2.75501V3.78902C11.5764 4.10226 11.8299 4.35624 12.1425 4.35624C12.455 4.35624 12.7085 4.10226 12.7085 3.78902V2.75501C12.7085 1.86141 13.4339 1.13444 14.3257 1.13444C15.2174 1.13444 15.9429 1.86141 15.9429 2.75501V10.4886H0.854611C0.542022 10.4886 0.288574 10.7426 0.288574 11.0558C0.288574 13.6158 1.90432 15.8044 4.16747 16.6522C3.73212 17.1108 3.46286 17.7397 3.46286 18.4328C3.46286 18.746 3.71631 19 4.02889 19C4.34148 19 4.59493 18.746 4.59493 18.4328C4.59493 17.6583 5.18467 17.0282 5.90961 17.0282C5.93624 17.0282 13.1262 17.0282 13.1529 17.0282C13.8778 17.0282 14.4676 17.6583 14.4676 18.4328C14.4676 18.746 14.721 19 15.0336 19C15.3462 19 15.5997 18.746 15.5997 18.4328C15.5997 17.7397 15.3304 17.1108 14.8951 16.6522C17.1582 15.8044 18.7739 13.6158 18.7739 11.0558ZM12.814 15.8938H6.24853C3.77782 15.8938 1.73468 14.0245 1.45364 11.6231H17.6088C17.3278 14.0245 15.2846 15.8938 12.814 15.8938Z" fill="white"/>
<path d="M12.1427 5.34033C11.8301 5.34033 11.5767 5.59431 11.5767 5.90755V6.39914C11.5767 6.71238 11.8301 6.96636 12.1427 6.96636C12.4553 6.96636 12.7087 6.71238 12.7087 6.39914V5.90755C12.7087 5.59427 12.4553 5.34033 12.1427 5.34033Z" fill="white"/>
<path d="M12.1427 8.06323C11.8301 8.06323 11.5767 8.31721 11.5767 8.63045V9.12204C11.5767 9.43528 11.8301 9.68926 12.1427 9.68926C12.4553 9.68926 12.7087 9.43528 12.7087 9.12204V8.63045C12.7087 8.31717 12.4553 8.06323 12.1427 8.06323Z" fill="white"/>
</g>
<defs>
<clipPath id="clip0_259_11378">
<rect width="18.9604" height="19" fill="white" transform="translate(0.0512695)"/>
</clipPath>
</defs>
</svg>
