<svg width="20" height="19" viewBox="0 0 20 19" fill="none" xmlns="http://www.w3.org/2000/svg">
<g clip-path="url(#clip0_259_11372)">
<path d="M17.252 8.62454V4.3934C17.252 3.46058 16.4947 2.70166 15.5638 2.70166H3.49817C2.5673 2.70166 1.80995 3.46058 1.80995 4.3934V8.62454C0.796903 8.90557 0.0507812 9.83701 0.0507812 10.9403V14.1552C0.0507812 14.4667 0.302821 14.7193 0.613669 14.7193H1.80995V15.734C1.80995 16.0455 2.06199 16.2981 2.37284 16.2981C2.68369 16.2981 2.93573 16.0455 2.93573 15.734V14.7193H16.1263V15.734C16.1263 16.0455 16.3783 16.2981 16.6891 16.2981C17 16.2981 17.252 16.0455 17.252 15.734V14.7193H18.4483C18.7592 14.7193 19.0112 14.4667 19.0112 14.1552V10.9403C19.0112 9.83701 18.265 8.90557 17.252 8.62454ZM2.93573 4.3934C2.93573 4.08265 3.18806 3.82979 3.49817 3.82979H15.5638C15.874 3.82979 16.1263 4.08265 16.1263 4.3934V8.53726H14.8074V7.40501C14.8074 6.42046 14.0081 5.6195 13.0256 5.6195H10.7499C10.2787 5.6195 9.84998 5.80404 9.53103 6.10444C9.21207 5.80408 8.78331 5.6195 8.31212 5.6195H6.03646C5.05396 5.6195 4.25466 6.4205 4.25466 7.40501V8.53726H2.93573V4.3934ZM13.6816 7.40501V8.53726H10.0939V7.40501C10.0939 7.04249 10.3882 6.74762 10.7499 6.74762H13.0256C13.3873 6.74762 13.6816 7.04253 13.6816 7.40501ZM8.96807 7.40501V8.53726H5.38033V7.40501C5.38033 7.04249 5.67466 6.74762 6.03635 6.74762H8.31201C8.67377 6.74762 8.96807 7.04253 8.96807 7.40501ZM17.8854 13.5912H1.17656V10.9403C1.17656 10.2373 1.74729 9.66538 2.44887 9.66538H16.6131C17.3146 9.66538 17.8854 10.2373 17.8854 10.9403V13.5912Z" fill="white"/>
</g>
<defs>
<clipPath id="clip0_259_11372">
<rect width="18.9604" height="19" fill="white" transform="translate(0.0507812)"/>
</clipPath>
</defs>
</svg>
