<svg width="20" height="19" viewBox="0 0 20 19" fill="none" xmlns="http://www.w3.org/2000/svg">
<g clip-path="url(#clip0_259_11390)">
<path d="M18.2865 7.61208L17.8733 7.17362L16.4229 3.25588C16.1757 2.59413 15.5437 2.15567 14.8388 2.15161H4.47942C3.77448 2.15161 3.14247 2.59413 2.89533 3.25588L1.4652 7.1249L0.869647 7.67704C0.351071 8.11956 0.0512695 8.76913 0.0512695 9.45118V15.1593C0.0553209 16.0931 0.812927 16.8482 1.74474 16.8482H2.8143C3.74612 16.8482 4.50373 16.0931 4.50778 15.1593V14.3311H14.5552V15.1593C14.5592 16.0931 15.3168 16.8482 16.2487 16.8482H17.3182C18.25 16.8482 19.0076 16.0931 19.0117 15.1593V9.30097C19.0076 8.66358 18.7483 8.0546 18.2865 7.61208ZM3.65699 3.53195C3.78663 3.18687 4.1148 2.96358 4.47942 2.96358H14.8428C15.2074 2.96358 15.5356 3.19093 15.6653 3.53195L16.9293 6.94221H15.9853C15.7625 5.41977 14.3486 4.36828 12.8293 4.59563C11.6179 4.77426 10.6659 5.72832 10.4876 6.94221H2.39296L3.65699 3.53195ZM15.1588 6.94221H11.306C11.5288 5.87447 12.5741 5.19242 13.6396 5.41571C14.4012 5.57811 14.9968 6.1749 15.1588 6.94221ZM3.6975 15.1593C3.69345 15.6465 3.30047 16.0362 2.8143 16.0362H1.74474C1.25858 16.0362 0.865595 15.6465 0.861544 15.1593V14.0956C1.10463 14.254 1.42468 14.3311 1.74474 14.3311H3.6975V15.1593ZM18.2014 15.1593C18.1974 15.6465 17.8044 16.0362 17.3182 16.0362H16.2487C15.7625 16.0362 15.3695 15.6424 15.3655 15.1593V14.3311H17.3182C17.6383 14.3311 17.9583 14.254 18.2014 14.0956V15.1593ZM17.3182 13.5191H1.74474C1.26263 13.5232 0.865595 13.1375 0.861544 12.6503V9.45118C0.861544 9.0046 1.06006 8.57832 1.40038 8.29007C1.40443 8.28601 1.41253 8.27789 1.41658 8.27383L1.96757 7.75418H17.3101L17.699 8.17234C17.7031 8.18046 17.7152 8.18452 17.7193 8.19264C18.0232 8.48088 18.1974 8.88281 18.1974 9.30097V12.6503H18.2014C18.1974 13.1334 17.8003 13.5232 17.3182 13.5191Z" fill="white"/>
<path d="M5.39923 9.37817H2.3607C2.13788 9.37817 1.95557 9.56087 1.95557 9.78416V11.8953C1.95557 12.1186 2.13788 12.3013 2.3607 12.3013H5.39923C5.62206 12.3013 5.80437 12.1186 5.80437 11.8953V9.78416C5.80437 9.56087 5.62206 9.37817 5.39923 9.37817ZM4.9941 11.4893H2.76584V10.1901H4.9941V11.4893Z" fill="white"/>
<path d="M16.7025 9.37817H13.6639C13.4411 9.37817 13.2588 9.56087 13.2588 9.78416V11.8953C13.2588 12.1186 13.4411 12.3013 13.6639 12.3013H16.7025C16.9253 12.3013 17.1076 12.1186 17.1076 11.8953V9.78416C17.1076 9.56087 16.9253 9.37817 16.7025 9.37817ZM16.2973 11.4893H14.0691V10.1901H16.2973V11.4893Z" fill="white"/>
<path d="M11.4882 11.0833H7.57457C7.35175 11.0833 7.16943 11.2659 7.16943 11.4892C7.16943 11.7125 7.35175 11.8952 7.57457 11.8952H11.4882C11.711 11.8952 11.8933 11.7125 11.8933 11.4892C11.8933 11.2659 11.711 11.0833 11.4882 11.0833Z" fill="white"/>
<path d="M11.4882 9.82471H7.57457C7.35175 9.82471 7.16943 10.0074 7.16943 10.2307C7.16943 10.454 7.35175 10.6367 7.57457 10.6367H11.4882C11.711 10.6367 11.8933 10.454 11.8933 10.2307C11.8933 10.0074 11.711 9.82471 11.4882 9.82471Z" fill="white"/>
</g>
<defs>
<clipPath id="clip0_259_11390">
<rect width="18.9604" height="19" fill="white" transform="translate(0.0512695)"/>
</clipPath>
</defs>
</svg>
