<svg width="17" height="18" viewBox="0 0 17 18" fill="none" xmlns="http://www.w3.org/2000/svg">
<path d="M8.26812 3.86914C6.59909 3.86914 5.24121 5.36824 5.24121 7.21085C5.24121 9.05346 6.59909 10.5526 8.26812 10.5526C9.93715 10.5526 11.295 9.05346 11.295 7.21085C11.295 5.36824 9.93718 3.86914 8.26812 3.86914ZM8.26812 9.14553C7.30183 9.14553 6.51569 8.27763 6.51569 7.21085C6.51569 6.14407 7.30183 5.27616 8.26812 5.27616C9.2344 5.27616 10.0205 6.14407 10.0205 7.21085C10.0205 8.27763 9.2344 9.14553 8.26812 9.14553Z" fill="white"/>
<path d="M8.2681 0C4.66646 0 1.73633 3.2349 1.73633 7.21107V7.41041C1.73633 9.42135 2.78063 11.7647 4.84033 14.3753C6.33345 16.2679 7.80572 17.5875 7.86762 17.6427L8.2681 18L8.66857 17.6428C8.73051 17.5875 10.2028 16.2679 11.6959 14.3754C13.7555 11.7647 14.7999 9.42138 14.7999 7.41045V7.21111C14.7999 3.2349 11.8697 0 8.2681 0ZM13.5254 7.41045C13.5254 10.8088 9.55913 14.9226 8.2681 16.1715C6.97671 14.9222 3.01081 10.8086 3.01081 7.41045V7.21111C3.01081 4.01077 5.36924 1.40706 8.2681 1.40706C11.167 1.40706 13.5254 4.01077 13.5254 7.21111V7.41045V7.41045Z" fill="white"/>
</svg>
