<svg width="57" height="57" viewBox="0 0 57 57" fill="none" xmlns="http://www.w3.org/2000/svg">
<circle opacity="0.2" cx="28.5" cy="28.5" r="28.5" fill="#1967D2"/>
<circle cx="28.5" cy="28.5" r="21.5" fill="#1967D2"/>
<path d="M33.6628 28.8354V24.7906L28.9996 22.313C27.4435 23.1388 25.8908 23.9647 24.3364 24.7906V31.0545H32.6992H37.0322C37.1905 30.7223 37.3522 30.3948 37.4833 30.0547C38.0213 28.6584 38.1388 27.157 37.8375 25.7137C37.5106 24.1403 36.6848 22.6405 35.3637 21.426C33.605 19.8087 31.3014 19 28.9996 19C26.6944 19 24.3908 19.8087 22.6355 21.426C20.8785 23.0448 20 25.1652 20 27.284C20 29.4043 20.8785 31.5263 22.6355 33.142L28.9996 39L35.3637 33.1436C35.6327 32.8959 35.8881 32.6295 36.1213 32.3521H34.2332L28.9996 37.1711L23.6281 32.2268C22.1469 30.8633 21.4046 29.0721 21.4046 27.284C21.4046 25.4958 22.1469 23.7062 23.6281 22.3412C25.111 20.9746 27.057 20.2929 28.9996 20.2929C30.9422 20.2929 32.8865 20.9762 34.3694 22.3396C35.4863 23.3677 36.1809 24.6308 36.4567 25.9535C36.7223 27.2197 36.6031 28.5377 36.1043 29.7569H25.7427V25.5335C26.8306 24.9552 27.9151 24.3785 28.9996 23.8018L32.2548 25.5335V28.8386H33.6628V28.8354Z" fill="white"/>
</svg>
