<svg width="18" height="17" viewBox="0 0 18 17" fill="none" xmlns="http://www.w3.org/2000/svg">
<g clip-path="url(#clip0_259_11408)">
<path d="M16.1642 0.146911L0.196116 16.1484C-0.116673 16.4618 0.10522 17.0002 0.548211 17.0002H16.5163C16.7913 17.0002 17.0143 16.7768 17.0143 16.5012V0.499775C17.0143 0.056491 16.4775 -0.166964 16.1642 0.146911ZM16.0184 16.0022H1.75043L4.28299 13.4644L4.97662 14.1595C5.07386 14.2569 5.20131 14.3056 5.32872 14.3056C5.76839 14.3056 5.99543 13.769 5.68082 13.4537L4.98718 12.7587L6.40761 11.3353L7.10125 12.0304C7.19848 12.1278 7.32593 12.1765 7.45334 12.1765C7.89301 12.1765 8.12005 11.6399 7.80544 11.3246L7.11184 10.6296L8.53227 9.2062L9.2259 9.90128C9.32314 9.99872 9.45059 10.0474 9.578 10.0474C10.0177 10.0474 10.2447 9.51083 9.93009 9.19556L9.23649 8.50051L10.6569 7.07711L11.3506 7.77219C11.4478 7.86963 11.5752 7.91833 11.7027 7.91833C12.1423 7.91833 12.3694 7.38173 12.0547 7.06646L11.3611 6.37141L12.7816 4.94802L13.4752 5.6431C13.5724 5.74054 13.6999 5.78924 13.8273 5.78924C14.267 5.78924 14.494 5.25264 14.1794 4.93737L13.4858 4.24232L16.0184 1.70448V16.0022H16.0184Z" fill="white"/>
<path d="M12.9434 8.39691L8.42854 12.9212C8.11575 13.2347 8.33764 13.7731 8.78063 13.7731H13.2955C13.5705 13.7731 13.7935 13.5497 13.7935 13.2741V8.74977C13.7935 8.30649 13.2567 8.08304 12.9434 8.39691ZM12.7976 12.7751H9.98286L12.7976 9.95447V12.7751Z" fill="white"/>
</g>
<defs>
<clipPath id="clip0_259_11408">
<rect width="16.9646" height="17" fill="white" transform="translate(0.0488281)"/>
</clipPath>
</defs>
</svg>
